G04 #@! TF.GenerationSoftware,KiCad,Pcbnew,(6.0.11)*
G04 #@! TF.CreationDate,2023-11-25T18:09:57+08:00*
G04 #@! TF.ProjectId,F1c200s_XhtCore,46316332-3030-4735-9f58-6874436f7265,rev?*
G04 #@! TF.SameCoordinates,Original*
G04 #@! TF.FileFunction,Paste,Top*
G04 #@! TF.FilePolarity,Positive*
%FSLAX46Y46*%
G04 Gerber Fmt 4.6, Leading zero omitted, Abs format (unit mm)*
G04 Created by KiCad (PCBNEW (6.0.11)) date 2023-11-25 18:09:57*
%MOMM*%
%LPD*%
G01*
G04 APERTURE LIST*
G04 Aperture macros list*
%AMRoundRect*
0 Rectangle with rounded corners*
0 $1 Rounding radius*
0 $2 $3 $4 $5 $6 $7 $8 $9 X,Y pos of 4 corners*
0 Add a 4 corners polygon primitive as box body*
4,1,4,$2,$3,$4,$5,$6,$7,$8,$9,$2,$3,0*
0 Add four circle primitives for the rounded corners*
1,1,$1+$1,$2,$3*
1,1,$1+$1,$4,$5*
1,1,$1+$1,$6,$7*
1,1,$1+$1,$8,$9*
0 Add four rect primitives between the rounded corners*
20,1,$1+$1,$2,$3,$4,$5,0*
20,1,$1+$1,$4,$5,$6,$7,0*
20,1,$1+$1,$6,$7,$8,$9,0*
20,1,$1+$1,$8,$9,$2,$3,0*%
%AMRotRect*
0 Rectangle, with rotation*
0 The origin of the aperture is its center*
0 $1 length*
0 $2 width*
0 $3 Rotation angle, in degrees counterclockwise*
0 Add horizontal line*
21,1,$1,$2,0,0,$3*%
G04 Aperture macros list end*
%ADD10C,0.120000*%
%ADD11C,0.010000*%
%ADD12R,0.600000X0.600000*%
%ADD13RoundRect,0.140000X-0.170000X0.140000X-0.170000X-0.140000X0.170000X-0.140000X0.170000X0.140000X0*%
%ADD14RoundRect,0.218750X-0.218750X-0.256250X0.218750X-0.256250X0.218750X0.256250X-0.218750X0.256250X0*%
%ADD15RoundRect,0.225000X0.225000X0.250000X-0.225000X0.250000X-0.225000X-0.250000X0.225000X-0.250000X0*%
%ADD16RoundRect,0.147500X0.172500X-0.147500X0.172500X0.147500X-0.172500X0.147500X-0.172500X-0.147500X0*%
%ADD17RoundRect,0.147500X-0.147500X-0.172500X0.147500X-0.172500X0.147500X0.172500X-0.147500X0.172500X0*%
%ADD18RoundRect,0.140000X-0.021213X0.219203X-0.219203X0.021213X0.021213X-0.219203X0.219203X-0.021213X0*%
%ADD19RoundRect,0.140000X-0.140000X-0.170000X0.140000X-0.170000X0.140000X0.170000X-0.140000X0.170000X0*%
%ADD20RoundRect,0.200000X0.200000X0.275000X-0.200000X0.275000X-0.200000X-0.275000X0.200000X-0.275000X0*%
%ADD21RoundRect,0.225000X-0.250000X0.225000X-0.250000X-0.225000X0.250000X-0.225000X0.250000X0.225000X0*%
%ADD22RoundRect,0.225000X0.250000X-0.225000X0.250000X0.225000X-0.250000X0.225000X-0.250000X-0.225000X0*%
%ADD23RoundRect,0.135000X-0.185000X0.135000X-0.185000X-0.135000X0.185000X-0.135000X0.185000X0.135000X0*%
%ADD24RoundRect,0.140000X0.140000X0.170000X-0.140000X0.170000X-0.140000X-0.170000X0.140000X-0.170000X0*%
%ADD25R,0.999998X1.550010*%
%ADD26RoundRect,0.250000X0.275000X-0.275000X0.275000X0.275000X-0.275000X0.275000X-0.275000X-0.275000X0*%
%ADD27RoundRect,0.062500X0.062500X-0.350000X0.062500X0.350000X-0.062500X0.350000X-0.062500X-0.350000X0*%
%ADD28RoundRect,0.062500X0.350000X-0.062500X0.350000X0.062500X-0.350000X0.062500X-0.350000X-0.062500X0*%
%ADD29RoundRect,0.200000X-0.275000X0.200000X-0.275000X-0.200000X0.275000X-0.200000X0.275000X0.200000X0*%
%ADD30C,3.000000*%
%ADD31RoundRect,0.140000X0.170000X-0.140000X0.170000X0.140000X-0.170000X0.140000X-0.170000X-0.140000X0*%
%ADD32O,0.700000X1.599997*%
%ADD33R,1.499997X0.500000*%
%ADD34R,1.499997X0.799998*%
%ADD35O,1.799971X3.999992*%
%ADD36R,1.650009X1.299997*%
%ADD37RoundRect,0.135000X0.135000X0.185000X-0.135000X0.185000X-0.135000X-0.185000X0.135000X-0.185000X0*%
%ADD38RoundRect,0.250000X0.650000X-0.325000X0.650000X0.325000X-0.650000X0.325000X-0.650000X-0.325000X0*%
%ADD39R,2.500000X1.800000*%
%ADD40RoundRect,0.250000X-0.625000X0.375000X-0.625000X-0.375000X0.625000X-0.375000X0.625000X0.375000X0*%
%ADD41R,1.400000X1.200000*%
%ADD42R,0.450000X0.600000*%
%ADD43RoundRect,0.200000X-0.200000X-0.275000X0.200000X-0.275000X0.200000X0.275000X-0.200000X0.275000X0*%
%ADD44RoundRect,0.147500X-0.172500X0.147500X-0.172500X-0.147500X0.172500X-0.147500X0.172500X0.147500X0*%
%ADD45R,1.000000X0.700000*%
%ADD46R,0.600000X0.700000*%
%ADD47RoundRect,0.250000X-0.375000X-0.850000X0.375000X-0.850000X0.375000X0.850000X-0.375000X0.850000X0*%
%ADD48RoundRect,0.140000X-0.219203X-0.021213X-0.021213X-0.219203X0.219203X0.021213X0.021213X0.219203X0*%
%ADD49RoundRect,0.225000X-0.225000X-0.250000X0.225000X-0.250000X0.225000X0.250000X-0.225000X0.250000X0*%
%ADD50R,0.740000X2.400000*%
%ADD51RotRect,1.400000X1.200000X45.000000*%
%ADD52RoundRect,0.135000X-0.135000X-0.185000X0.135000X-0.185000X0.135000X0.185000X-0.135000X0.185000X0*%
%ADD53RoundRect,0.200000X0.275000X-0.200000X0.275000X0.200000X-0.275000X0.200000X-0.275000X-0.200000X0*%
%ADD54RoundRect,0.135000X0.185000X-0.135000X0.185000X0.135000X-0.185000X0.135000X-0.185000X-0.135000X0*%
%ADD55RoundRect,0.140000X0.219203X0.021213X0.021213X0.219203X-0.219203X-0.021213X-0.021213X-0.219203X0*%
%ADD56R,1.499997X0.600000*%
%ADD57R,2.399995X2.799994*%
%ADD58R,1.405000X0.300000*%
%ADD59R,1.900000X1.200000*%
%ADD60R,1.850000X1.200000*%
%ADD61RoundRect,0.250000X0.375000X0.850000X-0.375000X0.850000X-0.375000X-0.850000X0.375000X-0.850000X0*%
%ADD62R,0.860000X0.220000*%
%ADD63R,0.220000X0.860000*%
%ADD64RoundRect,0.050000X0.800000X-1.150000X0.800000X1.150000X-0.800000X1.150000X-0.800000X-1.150000X0*%
%ADD65RoundRect,0.147500X-0.017678X0.226274X-0.226274X0.017678X0.017678X-0.226274X0.226274X-0.017678X0*%
%ADD66RoundRect,0.005400X0.394600X0.129600X-0.394600X0.129600X-0.394600X-0.129600X0.394600X-0.129600X0*%
%ADD67RoundRect,0.005400X-0.129600X0.394600X-0.129600X-0.394600X0.129600X-0.394600X0.129600X0.394600X0*%
%ADD68RoundRect,0.005400X-0.394600X-0.129600X0.394600X-0.129600X0.394600X0.129600X-0.394600X0.129600X0*%
%ADD69RoundRect,0.005400X0.129600X-0.394600X0.129600X0.394600X-0.129600X0.394600X-0.129600X-0.394600X0*%
G04 APERTURE END LIST*
D10*
G04 #@! TO.C,USB1*
X171750000Y-101050000D02*
X173600000Y-101050000D01*
X173600000Y-101050000D02*
X173600000Y-99150000D01*
X173600000Y-99150000D02*
X171750000Y-99150000D01*
X171750000Y-99150000D02*
X171750000Y-101050000D01*
G36*
X171750000Y-101050000D02*
G01*
X173600000Y-101050000D01*
X173600000Y-99150000D01*
X171750000Y-99150000D01*
X171750000Y-101050000D01*
G37*
X167650000Y-110850000D02*
X169500000Y-110850000D01*
X169500000Y-110850000D02*
X169500000Y-108950000D01*
X169500000Y-108950000D02*
X167650000Y-108950000D01*
X167650000Y-108950000D02*
X167650000Y-110850000D01*
G36*
X167650000Y-110850000D02*
G01*
X169500000Y-110850000D01*
X169500000Y-108950000D01*
X167650000Y-108950000D01*
X167650000Y-110850000D01*
G37*
X171750000Y-110850000D02*
X173600000Y-110850000D01*
X173600000Y-110850000D02*
X173600000Y-108950000D01*
X173600000Y-108950000D02*
X171750000Y-108950000D01*
X171750000Y-108950000D02*
X171750000Y-110850000D01*
G36*
X171750000Y-110850000D02*
G01*
X173600000Y-110850000D01*
X173600000Y-108950000D01*
X171750000Y-108950000D01*
X171750000Y-110850000D01*
G37*
X167650000Y-101000000D02*
X169500000Y-101000000D01*
X169500000Y-101000000D02*
X169500000Y-99100000D01*
X169500000Y-99100000D02*
X167650000Y-99100000D01*
X167650000Y-99100000D02*
X167650000Y-101000000D01*
G36*
X167650000Y-101000000D02*
G01*
X169500000Y-101000000D01*
X169500000Y-99100000D01*
X167650000Y-99100000D01*
X167650000Y-101000000D01*
G37*
G04 #@! TO.C,UNK4*
G36*
X143412500Y-82460000D02*
G01*
X142092500Y-82460000D01*
X142092500Y-81140000D01*
X143412500Y-81140000D01*
X143412500Y-82460000D01*
G37*
D11*
X143412500Y-82460000D02*
X142092500Y-82460000D01*
X142092500Y-81140000D01*
X143412500Y-81140000D01*
X143412500Y-82460000D01*
G36*
X141542500Y-84330000D02*
G01*
X140222500Y-84330000D01*
X140222500Y-83010000D01*
X141542500Y-83010000D01*
X141542500Y-84330000D01*
G37*
X141542500Y-84330000D02*
X140222500Y-84330000D01*
X140222500Y-83010000D01*
X141542500Y-83010000D01*
X141542500Y-84330000D01*
G36*
X145282500Y-80590000D02*
G01*
X143962500Y-80590000D01*
X143962500Y-79270000D01*
X145282500Y-79270000D01*
X145282500Y-80590000D01*
G37*
X145282500Y-80590000D02*
X143962500Y-80590000D01*
X143962500Y-79270000D01*
X145282500Y-79270000D01*
X145282500Y-80590000D01*
G36*
X141542500Y-80590000D02*
G01*
X140222500Y-80590000D01*
X140222500Y-79270000D01*
X141542500Y-79270000D01*
X141542500Y-80590000D01*
G37*
X141542500Y-80590000D02*
X140222500Y-80590000D01*
X140222500Y-79270000D01*
X141542500Y-79270000D01*
X141542500Y-80590000D01*
G36*
X143412500Y-80590000D02*
G01*
X142092500Y-80590000D01*
X142092500Y-79270000D01*
X143412500Y-79270000D01*
X143412500Y-80590000D01*
G37*
X143412500Y-80590000D02*
X142092500Y-80590000D01*
X142092500Y-79270000D01*
X143412500Y-79270000D01*
X143412500Y-80590000D01*
G36*
X141542500Y-82460000D02*
G01*
X140222500Y-82460000D01*
X140222500Y-81140000D01*
X141542500Y-81140000D01*
X141542500Y-82460000D01*
G37*
X141542500Y-82460000D02*
X140222500Y-82460000D01*
X140222500Y-81140000D01*
X141542500Y-81140000D01*
X141542500Y-82460000D01*
G36*
X145282500Y-82460000D02*
G01*
X143962500Y-82460000D01*
X143962500Y-81140000D01*
X145282500Y-81140000D01*
X145282500Y-82460000D01*
G37*
X145282500Y-82460000D02*
X143962500Y-82460000D01*
X143962500Y-81140000D01*
X145282500Y-81140000D01*
X145282500Y-82460000D01*
G36*
X143412500Y-84330000D02*
G01*
X142092500Y-84330000D01*
X142092500Y-83010000D01*
X143412500Y-83010000D01*
X143412500Y-84330000D01*
G37*
X143412500Y-84330000D02*
X142092500Y-84330000D01*
X142092500Y-83010000D01*
X143412500Y-83010000D01*
X143412500Y-84330000D01*
G36*
X145282500Y-84330000D02*
G01*
X143962500Y-84330000D01*
X143962500Y-83010000D01*
X145282500Y-83010000D01*
X145282500Y-84330000D01*
G37*
X145282500Y-84330000D02*
X143962500Y-84330000D01*
X143962500Y-83010000D01*
X145282500Y-83010000D01*
X145282500Y-84330000D01*
D10*
G04 #@! TO.C,USB2*
X118850000Y-99150000D02*
X117000000Y-99150000D01*
X117000000Y-99150000D02*
X117000000Y-101050000D01*
X117000000Y-101050000D02*
X118850000Y-101050000D01*
X118850000Y-101050000D02*
X118850000Y-99150000D01*
G36*
X118850000Y-99150000D02*
G01*
X117000000Y-99150000D01*
X117000000Y-101050000D01*
X118850000Y-101050000D01*
X118850000Y-99150000D01*
G37*
X122950000Y-109000000D02*
X121100000Y-109000000D01*
X121100000Y-109000000D02*
X121100000Y-110900000D01*
X121100000Y-110900000D02*
X122950000Y-110900000D01*
X122950000Y-110900000D02*
X122950000Y-109000000D01*
G36*
X122950000Y-109000000D02*
G01*
X121100000Y-109000000D01*
X121100000Y-110900000D01*
X122950000Y-110900000D01*
X122950000Y-109000000D01*
G37*
X122950000Y-99150000D02*
X121100000Y-99150000D01*
X121100000Y-99150000D02*
X121100000Y-101050000D01*
X121100000Y-101050000D02*
X122950000Y-101050000D01*
X122950000Y-101050000D02*
X122950000Y-99150000D01*
G36*
X122950000Y-99150000D02*
G01*
X121100000Y-99150000D01*
X121100000Y-101050000D01*
X122950000Y-101050000D01*
X122950000Y-99150000D01*
G37*
X118850000Y-108950000D02*
X117000000Y-108950000D01*
X117000000Y-108950000D02*
X117000000Y-110850000D01*
X117000000Y-110850000D02*
X118850000Y-110850000D01*
X118850000Y-110850000D02*
X118850000Y-108950000D01*
G36*
X118850000Y-108950000D02*
G01*
X117000000Y-108950000D01*
X117000000Y-110850000D01*
X118850000Y-110850000D01*
X118850000Y-108950000D01*
G37*
G04 #@! TO.C,U1*
G36*
X165372310Y-90670000D02*
G01*
X163030000Y-90670000D01*
X163030000Y-88327690D01*
X165372310Y-88327690D01*
X165372310Y-90670000D01*
G37*
D11*
X165372310Y-90670000D02*
X163030000Y-90670000D01*
X163030000Y-88327690D01*
X165372310Y-88327690D01*
X165372310Y-90670000D01*
G04 #@! TD*
D12*
G04 #@! TO.C,L4*
X126600104Y-103500001D03*
X128999896Y-103500001D03*
X128999896Y-104499999D03*
X126600104Y-104499999D03*
G04 #@! TD*
D13*
G04 #@! TO.C,C56*
X145250000Y-111620000D03*
X145250000Y-112580000D03*
G04 #@! TD*
D14*
G04 #@! TO.C,D8*
X162712500Y-83000000D03*
X164287500Y-83000000D03*
G04 #@! TD*
D15*
G04 #@! TO.C,C21*
X131575000Y-76000000D03*
X130025000Y-76000000D03*
G04 #@! TD*
D14*
G04 #@! TO.C,D14*
X136112500Y-96281250D03*
X137687500Y-96281250D03*
G04 #@! TD*
D16*
G04 #@! TO.C,D9*
X127900000Y-84585000D03*
X127900000Y-83615000D03*
G04 #@! TD*
D17*
G04 #@! TO.C,D7*
X121415000Y-73700000D03*
X122385000Y-73700000D03*
G04 #@! TD*
D15*
G04 #@! TO.C,C55*
X140800000Y-107400000D03*
X139250000Y-107400000D03*
G04 #@! TD*
D18*
G04 #@! TO.C,C17*
X135839411Y-79010589D03*
X135160589Y-79689411D03*
G04 #@! TD*
D19*
G04 #@! TO.C,C31*
X141320000Y-89400000D03*
X142280000Y-89400000D03*
G04 #@! TD*
D20*
G04 #@! TO.C,R47*
X131625000Y-74400000D03*
X129975000Y-74400000D03*
G04 #@! TD*
D21*
G04 #@! TO.C,C14*
X133800000Y-88850000D03*
X133800000Y-90400000D03*
G04 #@! TD*
D20*
G04 #@! TO.C,R21*
X118025000Y-112300000D03*
X116375000Y-112300000D03*
G04 #@! TD*
D22*
G04 #@! TO.C,C46*
X137550000Y-112425000D03*
X137550000Y-110875000D03*
G04 #@! TD*
D23*
G04 #@! TO.C,R41*
X149725000Y-91390000D03*
X149725000Y-92410000D03*
G04 #@! TD*
D24*
G04 #@! TO.C,C8*
X164780000Y-93600000D03*
X163820000Y-93600000D03*
G04 #@! TD*
D25*
G04 #@! TO.C,SW2*
X118250011Y-93199969D03*
X116549989Y-93199918D03*
X118250011Y-88000005D03*
X116549989Y-88000005D03*
G04 #@! TD*
D26*
G04 #@! TO.C,U3*
X144650000Y-108850000D03*
X145950000Y-107550000D03*
X145950000Y-108850000D03*
X144650000Y-107550000D03*
D27*
X144050000Y-110137500D03*
X144550000Y-110137500D03*
X145050000Y-110137500D03*
X145550000Y-110137500D03*
X146050000Y-110137500D03*
X146550000Y-110137500D03*
D28*
X147237500Y-109450000D03*
X147237500Y-108950000D03*
X147237500Y-108450000D03*
X147237500Y-107950000D03*
X147237500Y-107450000D03*
X147237500Y-106950000D03*
D27*
X146550000Y-106262500D03*
X146050000Y-106262500D03*
X145550000Y-106262500D03*
X145050000Y-106262500D03*
X144550000Y-106262500D03*
X144050000Y-106262500D03*
D28*
X143362500Y-106950000D03*
X143362500Y-107450000D03*
X143362500Y-107950000D03*
X143362500Y-108450000D03*
X143362500Y-108950000D03*
X143362500Y-109450000D03*
G04 #@! TD*
D29*
G04 #@! TO.C,R44*
X133300000Y-74375000D03*
X133300000Y-76025000D03*
G04 #@! TD*
D23*
G04 #@! TO.C,R43*
X139700000Y-93590000D03*
X139700000Y-94610000D03*
G04 #@! TD*
D15*
G04 #@! TO.C,C54*
X140800000Y-109100000D03*
X139250000Y-109100000D03*
G04 #@! TD*
D30*
G04 #@! TO.C,TP5*
X159900000Y-107400000D03*
G04 #@! TD*
D31*
G04 #@! TO.C,C48*
X147450000Y-104930000D03*
X147450000Y-103970000D03*
G04 #@! TD*
D32*
G04 #@! TO.C,J2*
X149030092Y-96549966D03*
X147930018Y-96549966D03*
X146830198Y-96549966D03*
X145730124Y-96549966D03*
X144630050Y-96549966D03*
X143529976Y-96549966D03*
X142430156Y-96549966D03*
X141330082Y-96549966D03*
D33*
X150769991Y-99659942D03*
D34*
X149980052Y-100650034D03*
D35*
X140230008Y-99149910D03*
D36*
X150410074Y-98410008D03*
G04 #@! TD*
D19*
G04 #@! TO.C,C2*
X167020000Y-93600000D03*
X167980000Y-93600000D03*
G04 #@! TD*
G04 #@! TO.C,C5*
X167020000Y-94700000D03*
X167980000Y-94700000D03*
G04 #@! TD*
D29*
G04 #@! TO.C,R2*
X128500000Y-87250000D03*
X128500000Y-88900000D03*
G04 #@! TD*
D23*
G04 #@! TO.C,R29*
X149100000Y-86490000D03*
X149100000Y-87510000D03*
G04 #@! TD*
D19*
G04 #@! TO.C,C42*
X149620000Y-84700000D03*
X150580000Y-84700000D03*
G04 #@! TD*
D37*
G04 #@! TO.C,R4*
X167610000Y-95800000D03*
X166590000Y-95800000D03*
G04 #@! TD*
D38*
G04 #@! TO.C,C28*
X159900000Y-113475000D03*
X159900000Y-110525000D03*
G04 #@! TD*
D39*
G04 #@! TO.C,D10*
X121400000Y-113100000D03*
X125400000Y-113100000D03*
G04 #@! TD*
D40*
G04 #@! TO.C,UNK2*
X165100000Y-107400000D03*
X165100000Y-110200000D03*
G04 #@! TD*
D29*
G04 #@! TO.C,R28*
X120400000Y-87275000D03*
X120400000Y-88925000D03*
G04 #@! TD*
D23*
G04 #@! TO.C,R31*
X146900000Y-91390000D03*
X146900000Y-92410000D03*
G04 #@! TD*
D40*
G04 #@! TO.C,UNK3*
X125500000Y-107400000D03*
X125500000Y-110200000D03*
G04 #@! TD*
D19*
G04 #@! TO.C,C3*
X169220000Y-84700000D03*
X170180000Y-84700000D03*
G04 #@! TD*
D41*
G04 #@! TO.C,Y1*
X160800000Y-97550000D03*
X163000000Y-97550000D03*
X163000000Y-95850000D03*
X160800000Y-95850000D03*
G04 #@! TD*
D42*
G04 #@! TO.C,D5*
X124400000Y-92350000D03*
X124400000Y-90250000D03*
G04 #@! TD*
D13*
G04 #@! TO.C,C30*
X145000000Y-74120000D03*
X145000000Y-75080000D03*
G04 #@! TD*
D42*
G04 #@! TO.C,D2*
X126400000Y-92350000D03*
X126400000Y-90250000D03*
G04 #@! TD*
D23*
G04 #@! TO.C,R48*
X131500000Y-82390000D03*
X131500000Y-83410000D03*
G04 #@! TD*
D38*
G04 #@! TO.C,C29*
X130900000Y-113475000D03*
X130900000Y-110525000D03*
G04 #@! TD*
D39*
G04 #@! TO.C,D11*
X169400000Y-113200000D03*
X165400000Y-113200000D03*
G04 #@! TD*
D43*
G04 #@! TO.C,R30*
X136075000Y-94681250D03*
X137725000Y-94681250D03*
G04 #@! TD*
D44*
G04 #@! TO.C,D16*
X148269876Y-93615000D03*
X148269876Y-94585000D03*
G04 #@! TD*
D20*
G04 #@! TO.C,R34*
X150875000Y-113850000D03*
X149225000Y-113850000D03*
G04 #@! TD*
D31*
G04 #@! TO.C,C11*
X159200000Y-97980000D03*
X159200000Y-97020000D03*
G04 #@! TD*
D30*
G04 #@! TO.C,TP1*
X154600000Y-78000000D03*
G04 #@! TD*
D31*
G04 #@! TO.C,C13*
X159300000Y-87680000D03*
X159300000Y-86720000D03*
G04 #@! TD*
G04 #@! TO.C,C33*
X143900000Y-75080000D03*
X143900000Y-74120000D03*
G04 #@! TD*
D23*
G04 #@! TO.C,R16*
X162600000Y-84480000D03*
X162600000Y-85500000D03*
G04 #@! TD*
D42*
G04 #@! TO.C,D1*
X128500000Y-92350000D03*
X128500000Y-90250000D03*
G04 #@! TD*
D45*
G04 #@! TO.C,D12*
X156850000Y-104400000D03*
D46*
X158550000Y-104400000D03*
X158550000Y-102400000D03*
X156650000Y-102400000D03*
G04 #@! TD*
D47*
G04 #@! TO.C,L8*
X139375000Y-104950000D03*
X141525000Y-104950000D03*
G04 #@! TD*
D12*
G04 #@! TO.C,L3*
X163299896Y-103899999D03*
X160900104Y-103899999D03*
X160900104Y-102900001D03*
X163299896Y-102900001D03*
G04 #@! TD*
D21*
G04 #@! TO.C,C35*
X120400000Y-90525000D03*
X120400000Y-92075000D03*
G04 #@! TD*
D15*
G04 #@! TO.C,C57*
X131575000Y-79300000D03*
X130025000Y-79300000D03*
G04 #@! TD*
D21*
G04 #@! TO.C,C44*
X153150000Y-104075000D03*
X153150000Y-105625000D03*
G04 #@! TD*
D42*
G04 #@! TO.C,D4*
X131900000Y-92350000D03*
X131900000Y-90250000D03*
G04 #@! TD*
D48*
G04 #@! TO.C,C37*
X154980589Y-84360589D03*
X155659411Y-85039411D03*
G04 #@! TD*
D49*
G04 #@! TO.C,C16*
X131725000Y-81000000D03*
X133275000Y-81000000D03*
G04 #@! TD*
D50*
G04 #@! TO.C,J1*
X152895000Y-97050000D03*
X152895000Y-93150000D03*
X154165000Y-97050000D03*
X154165000Y-93150000D03*
X155435000Y-97050000D03*
X155435000Y-93150000D03*
X156705000Y-97050000D03*
X156705000Y-93150000D03*
G04 #@! TD*
D43*
G04 #@! TO.C,R37*
X142825000Y-113850000D03*
X144475000Y-113850000D03*
G04 #@! TD*
D51*
G04 #@! TO.C,Y2*
X152743223Y-87578858D03*
X154298858Y-86023223D03*
X153096777Y-84821142D03*
X151541142Y-86376777D03*
G04 #@! TD*
D52*
G04 #@! TO.C,R9*
X159290000Y-90200000D03*
X160310000Y-90200000D03*
G04 #@! TD*
D13*
G04 #@! TO.C,C22*
X141100000Y-74120000D03*
X141100000Y-75080000D03*
G04 #@! TD*
D22*
G04 #@! TO.C,C41*
X125800000Y-96675000D03*
X125800000Y-95125000D03*
G04 #@! TD*
D53*
G04 #@! TO.C,R24*
X136000000Y-75925000D03*
X136000000Y-74275000D03*
G04 #@! TD*
D13*
G04 #@! TO.C,C43*
X145600000Y-91420000D03*
X145600000Y-92380000D03*
G04 #@! TD*
D44*
G04 #@! TO.C,D18*
X145569876Y-93615000D03*
X145569876Y-94585000D03*
G04 #@! TD*
D29*
G04 #@! TO.C,R7*
X124400000Y-87250000D03*
X124400000Y-88900000D03*
G04 #@! TD*
D13*
G04 #@! TO.C,C50*
X143150000Y-111470000D03*
X143150000Y-112430000D03*
G04 #@! TD*
D54*
G04 #@! TO.C,R14*
X165000000Y-85510000D03*
X165000000Y-84490000D03*
G04 #@! TD*
D23*
G04 #@! TO.C,R40*
X148300000Y-91390000D03*
X148300000Y-92410000D03*
G04 #@! TD*
D54*
G04 #@! TO.C,R10*
X161400000Y-85500000D03*
X161400000Y-84480000D03*
G04 #@! TD*
D17*
G04 #@! TO.C,L2*
X171915000Y-87800000D03*
X172885000Y-87800000D03*
G04 #@! TD*
D31*
G04 #@! TO.C,C51*
X143150000Y-104930000D03*
X143150000Y-103970000D03*
G04 #@! TD*
D45*
G04 #@! TO.C,D13*
X133850000Y-102300000D03*
D46*
X132150000Y-102300000D03*
X132150000Y-104300000D03*
X134050000Y-104300000D03*
G04 #@! TD*
D52*
G04 #@! TO.C,R8*
X159290000Y-89100000D03*
X160310000Y-89100000D03*
G04 #@! TD*
D13*
G04 #@! TO.C,C10*
X164600000Y-97020000D03*
X164600000Y-97980000D03*
G04 #@! TD*
D44*
G04 #@! TO.C,D19*
X144100000Y-93615000D03*
X144100000Y-94585000D03*
G04 #@! TD*
D43*
G04 #@! TO.C,R39*
X142775000Y-102550000D03*
X144425000Y-102550000D03*
G04 #@! TD*
G04 #@! TO.C,R36*
X139625000Y-113850000D03*
X141275000Y-113850000D03*
G04 #@! TD*
D19*
G04 #@! TO.C,C4*
X171920000Y-84600000D03*
X172880000Y-84600000D03*
G04 #@! TD*
D20*
G04 #@! TO.C,R32*
X150975000Y-102550000D03*
X149325000Y-102550000D03*
G04 #@! TD*
D43*
G04 #@! TO.C,R19*
X172675000Y-113900000D03*
X174325000Y-113900000D03*
G04 #@! TD*
D13*
G04 #@! TO.C,C49*
X147450000Y-111470000D03*
X147450000Y-112430000D03*
G04 #@! TD*
D19*
G04 #@! TO.C,C9*
X164620000Y-95800000D03*
X165580000Y-95800000D03*
G04 #@! TD*
D24*
G04 #@! TO.C,C24*
X141280000Y-88300000D03*
X140320000Y-88300000D03*
G04 #@! TD*
D54*
G04 #@! TO.C,R13*
X163800000Y-85500000D03*
X163800000Y-84480000D03*
G04 #@! TD*
D13*
G04 #@! TO.C,C6*
X171880000Y-85720000D03*
X171880000Y-86680000D03*
G04 #@! TD*
D31*
G04 #@! TO.C,C12*
X160400000Y-87680000D03*
X160400000Y-86720000D03*
G04 #@! TD*
D17*
G04 #@! TO.C,D6*
X118015000Y-73700000D03*
X118985000Y-73700000D03*
G04 #@! TD*
D55*
G04 #@! TO.C,C38*
X151859411Y-89039411D03*
X151180589Y-88360589D03*
G04 #@! TD*
D38*
G04 #@! TO.C,C27*
X128400000Y-113475000D03*
X128400000Y-110525000D03*
G04 #@! TD*
D56*
G04 #@! TO.C,U2*
X133449930Y-99999996D03*
X133449930Y-98999998D03*
X133449930Y-98000000D03*
X133449930Y-97000002D03*
X133449930Y-96000004D03*
X127950069Y-96000004D03*
X127950069Y-97000002D03*
X127950069Y-98000000D03*
X127950069Y-98999998D03*
X127950069Y-99999996D03*
D57*
X130700127Y-98000000D03*
G04 #@! TD*
D22*
G04 #@! TO.C,C45*
X153150000Y-112425000D03*
X153150000Y-110875000D03*
G04 #@! TD*
D25*
G04 #@! TO.C,SW1*
X172449989Y-91600031D03*
X174150011Y-91600082D03*
X172449989Y-96799995D03*
X174150011Y-96799995D03*
G04 #@! TD*
D49*
G04 #@! TO.C,C52*
X149825000Y-109100000D03*
X151375000Y-109100000D03*
G04 #@! TD*
G04 #@! TO.C,C53*
X149825000Y-107400000D03*
X151375000Y-107400000D03*
G04 #@! TD*
D31*
G04 #@! TO.C,C7*
X166200000Y-85480000D03*
X166200000Y-84520000D03*
G04 #@! TD*
D23*
G04 #@! TO.C,R25*
X139300000Y-74090000D03*
X139300000Y-75110000D03*
G04 #@! TD*
D54*
G04 #@! TO.C,R12*
X168800000Y-96910000D03*
X168800000Y-95890000D03*
G04 #@! TD*
D13*
G04 #@! TO.C,C19*
X137700000Y-88120000D03*
X137700000Y-89080000D03*
G04 #@! TD*
D58*
G04 #@! TO.C,USB1*
X167802500Y-108350000D03*
X167802500Y-107550000D03*
X167802500Y-106250000D03*
X167802500Y-105250000D03*
X167802500Y-104750000D03*
X167802500Y-103750000D03*
X167802500Y-102450000D03*
X167802500Y-101650000D03*
X167802500Y-101950000D03*
X167802500Y-102750000D03*
X167802500Y-103250000D03*
X167802500Y-104250000D03*
X167802500Y-105750000D03*
X167802500Y-106750000D03*
X167802500Y-107250000D03*
X167802500Y-108050000D03*
D59*
X168600000Y-99700000D03*
X172700000Y-99700000D03*
D60*
X172700000Y-110300000D03*
D59*
X168600000Y-110300000D03*
G04 #@! TD*
D61*
G04 #@! TO.C,L5*
X151325000Y-104950000D03*
X149175000Y-104950000D03*
G04 #@! TD*
D21*
G04 #@! TO.C,C47*
X137550000Y-104275000D03*
X137550000Y-105825000D03*
G04 #@! TD*
D20*
G04 #@! TO.C,R33*
X147775000Y-102550000D03*
X146125000Y-102550000D03*
G04 #@! TD*
D29*
G04 #@! TO.C,R23*
X120100000Y-95175000D03*
X120100000Y-96825000D03*
G04 #@! TD*
D52*
G04 #@! TO.C,R11*
X168190000Y-87000000D03*
X169210000Y-87000000D03*
G04 #@! TD*
D62*
G04 #@! TO.C,UNK4*
X137817500Y-77600000D03*
X137817500Y-78000000D03*
X137817500Y-78400000D03*
X137817500Y-78800000D03*
X137817500Y-79200000D03*
X137817500Y-79600000D03*
X137817500Y-80000000D03*
X137817500Y-80400000D03*
X137817500Y-80800000D03*
X137817500Y-81200000D03*
X137817500Y-81600000D03*
X137817500Y-82000000D03*
X137817500Y-82400000D03*
X137817500Y-82800000D03*
X137817500Y-83200000D03*
X137817500Y-83600000D03*
X137817500Y-84000000D03*
X137817500Y-84400000D03*
X137817500Y-84800000D03*
X137817500Y-85200000D03*
X137817500Y-85600000D03*
X137817500Y-86000000D03*
D63*
X138552500Y-86735000D03*
X138952500Y-86735000D03*
X139352500Y-86735000D03*
X139752500Y-86735000D03*
X140152500Y-86735000D03*
X140552500Y-86735000D03*
X140952500Y-86735000D03*
X141352500Y-86735000D03*
X141752500Y-86735000D03*
X142152500Y-86735000D03*
X142552500Y-86735000D03*
X142952500Y-86735000D03*
X143352500Y-86735000D03*
X143752500Y-86735000D03*
X144152500Y-86735000D03*
X144552500Y-86735000D03*
X144952500Y-86735000D03*
X145352500Y-86735000D03*
X145752500Y-86735000D03*
X146152500Y-86735000D03*
X146552500Y-86735000D03*
X146952500Y-86735000D03*
D62*
X147687500Y-86000000D03*
X147687500Y-85600000D03*
X147687500Y-85200000D03*
X147687500Y-84800000D03*
X147687500Y-84400000D03*
X147687500Y-84000000D03*
X147687500Y-83600000D03*
X147687500Y-83200000D03*
X147687500Y-82800000D03*
X147687500Y-82400000D03*
X147687500Y-82000000D03*
X147687500Y-81600000D03*
X147687500Y-81200000D03*
X147687500Y-80800000D03*
X147687500Y-80400000D03*
X147687500Y-80000000D03*
X147687500Y-79600000D03*
X147687500Y-79200000D03*
X147687500Y-78800000D03*
X147687500Y-78400000D03*
X147687500Y-78000000D03*
X147687500Y-77600000D03*
D63*
X146952500Y-76865000D03*
X146552500Y-76865000D03*
X146152500Y-76865000D03*
X145752500Y-76865000D03*
X145352500Y-76865000D03*
X144952500Y-76865000D03*
X144552500Y-76865000D03*
X144152500Y-76865000D03*
X143752500Y-76865000D03*
X143352500Y-76865000D03*
X142952500Y-76865000D03*
X142552500Y-76865000D03*
X142152500Y-76865000D03*
X141752500Y-76865000D03*
X141352500Y-76865000D03*
X140952500Y-76865000D03*
X140552500Y-76865000D03*
X140152500Y-76865000D03*
X139752500Y-76865000D03*
X139352500Y-76865000D03*
X138952500Y-76865000D03*
X138552500Y-76865000D03*
G04 #@! TD*
D20*
G04 #@! TO.C,R46*
X131625000Y-77700000D03*
X129975000Y-77700000D03*
G04 #@! TD*
D52*
G04 #@! TO.C,R1*
X164590000Y-94700000D03*
X165610000Y-94700000D03*
G04 #@! TD*
D20*
G04 #@! TO.C,R35*
X147675000Y-113850000D03*
X146025000Y-113850000D03*
G04 #@! TD*
D49*
G04 #@! TO.C,C39*
X127925000Y-101600000D03*
X129475000Y-101600000D03*
G04 #@! TD*
D13*
G04 #@! TO.C,C23*
X137700000Y-74120000D03*
X137700000Y-75080000D03*
G04 #@! TD*
D24*
G04 #@! TO.C,C18*
X135980000Y-85200000D03*
X135020000Y-85200000D03*
G04 #@! TD*
D43*
G04 #@! TO.C,R38*
X139675000Y-102550000D03*
X141325000Y-102550000D03*
G04 #@! TD*
D29*
G04 #@! TO.C,R22*
X121800000Y-95175000D03*
X121800000Y-96825000D03*
G04 #@! TD*
D42*
G04 #@! TO.C,D3*
X122400000Y-92350000D03*
X122400000Y-90250000D03*
G04 #@! TD*
D52*
G04 #@! TO.C,R42*
X140690000Y-92200000D03*
X141710000Y-92200000D03*
G04 #@! TD*
D43*
G04 #@! TO.C,R18*
X172675000Y-112300000D03*
X174325000Y-112300000D03*
G04 #@! TD*
D19*
G04 #@! TO.C,C32*
X143420000Y-89400000D03*
X144380000Y-89400000D03*
G04 #@! TD*
D52*
G04 #@! TO.C,R26*
X141290000Y-90500000D03*
X142310000Y-90500000D03*
G04 #@! TD*
G04 #@! TO.C,R27*
X143390000Y-90500000D03*
X144410000Y-90500000D03*
G04 #@! TD*
D44*
G04 #@! TO.C,D15*
X149669876Y-93615000D03*
X149669876Y-94585000D03*
G04 #@! TD*
D29*
G04 #@! TO.C,R5*
X122400000Y-87250000D03*
X122400000Y-88900000D03*
G04 #@! TD*
D31*
G04 #@! TO.C,C20*
X170600000Y-97880000D03*
X170600000Y-96920000D03*
G04 #@! TD*
D20*
G04 #@! TO.C,R20*
X118025000Y-114000000D03*
X116375000Y-114000000D03*
G04 #@! TD*
D29*
G04 #@! TO.C,R3*
X126400000Y-87250000D03*
X126400000Y-88900000D03*
G04 #@! TD*
D22*
G04 #@! TO.C,C40*
X124200000Y-96675000D03*
X124200000Y-95125000D03*
G04 #@! TD*
D64*
G04 #@! TO.C,CN1*
X117900000Y-82800000D03*
X116799900Y-75800000D03*
X121000100Y-82800000D03*
X119000100Y-75800000D03*
X123800100Y-82800000D03*
X121799900Y-75800000D03*
X124100100Y-75800000D03*
X126000100Y-82800000D03*
G04 #@! TD*
D52*
G04 #@! TO.C,R17*
X166590000Y-96900000D03*
X167610000Y-96900000D03*
G04 #@! TD*
D58*
G04 #@! TO.C,USB2*
X122797500Y-101650000D03*
X122797500Y-102450000D03*
X122797500Y-103750000D03*
X122797500Y-104750000D03*
X122797500Y-105250000D03*
X122797500Y-106250000D03*
X122797500Y-107550000D03*
X122797500Y-108350000D03*
X122797500Y-108050000D03*
X122797500Y-107250000D03*
X122797500Y-106750000D03*
X122797500Y-105750000D03*
X122797500Y-104250000D03*
X122797500Y-103250000D03*
X122797500Y-102750000D03*
X122797500Y-101950000D03*
D60*
X117900000Y-99700000D03*
D59*
X122000000Y-99700000D03*
X117900000Y-110300000D03*
X122000000Y-110300000D03*
G04 #@! TD*
D53*
G04 #@! TO.C,R15*
X130100000Y-82625000D03*
X130100000Y-80975000D03*
G04 #@! TD*
D19*
G04 #@! TO.C,C36*
X149220000Y-76100000D03*
X150180000Y-76100000D03*
G04 #@! TD*
D29*
G04 #@! TO.C,R6*
X131900000Y-87250000D03*
X131900000Y-88900000D03*
G04 #@! TD*
D30*
G04 #@! TO.C,TP6*
X130900000Y-107300000D03*
G04 #@! TD*
D47*
G04 #@! TO.C,L7*
X139375000Y-111550000D03*
X141525000Y-111550000D03*
G04 #@! TD*
D44*
G04 #@! TO.C,D21*
X140900000Y-93615000D03*
X140900000Y-94585000D03*
G04 #@! TD*
D65*
G04 #@! TO.C,L1*
X169142947Y-88257053D03*
X168457053Y-88942947D03*
G04 #@! TD*
D13*
G04 #@! TO.C,C26*
X142200000Y-74120000D03*
X142200000Y-75080000D03*
G04 #@! TD*
D19*
G04 #@! TO.C,C1*
X169220000Y-85800000D03*
X170180000Y-85800000D03*
G04 #@! TD*
D44*
G04 #@! TO.C,D17*
X146869876Y-93615000D03*
X146869876Y-94585000D03*
G04 #@! TD*
G04 #@! TO.C,D20*
X142400000Y-93615000D03*
X142400000Y-94585000D03*
G04 #@! TD*
D19*
G04 #@! TO.C,C34*
X143420000Y-88300000D03*
X144380000Y-88300000D03*
G04 #@! TD*
D29*
G04 #@! TO.C,R45*
X133200000Y-77675000D03*
X133200000Y-79325000D03*
G04 #@! TD*
D21*
G04 #@! TO.C,C15*
X135400000Y-88850000D03*
X135400000Y-90400000D03*
G04 #@! TD*
D66*
G04 #@! TO.C,U1*
X166650000Y-91250000D03*
X166650000Y-90750000D03*
X166650000Y-90250000D03*
X166650000Y-89750000D03*
X166650000Y-89250000D03*
X166650000Y-88750000D03*
X166650000Y-88250000D03*
X166650000Y-87750000D03*
D67*
X165950000Y-87050000D03*
X165450000Y-87050000D03*
X164950000Y-87050000D03*
X164450000Y-87050000D03*
X163950000Y-87050000D03*
X163450000Y-87050000D03*
X162950000Y-87050000D03*
X162450000Y-87050000D03*
D68*
X161750000Y-87750000D03*
X161750000Y-88250000D03*
X161750000Y-88750000D03*
X161750000Y-89250000D03*
X161750000Y-89750000D03*
X161750000Y-90250000D03*
X161750000Y-90750000D03*
X161750000Y-91250000D03*
D69*
X162450000Y-91950000D03*
X162950000Y-91950000D03*
X163450000Y-91950000D03*
X163950000Y-91950000D03*
X164450000Y-91950000D03*
X164950000Y-91950000D03*
X165450000Y-91950000D03*
X165950000Y-91950000D03*
G04 #@! TD*
D38*
G04 #@! TO.C,C25*
X162400000Y-113475000D03*
X162400000Y-110525000D03*
G04 #@! TD*
D61*
G04 #@! TO.C,L6*
X151325000Y-111550000D03*
X149175000Y-111550000D03*
G04 #@! TD*
M02*
