M48
; DRILL file {KiCad (6.0.11)} date Sat Nov 25 18:10:00 2023
; FORMAT={-:-/ absolute / inch / decimal}
; #@! TF.CreationDate,2023-11-25T18:10:00+08:00
; #@! TF.GenerationSoftware,Kicad,Pcbnew,(6.0.11)
; #@! TF.FileFunction,Plated,1,4,PTH
FMAT,2
INCH
; #@! TA.AperFunction,Plated,PTH,ViaDrill
T1C0.0118
; #@! TA.AperFunction,Plated,PTH,ComponentDrill
T2C0.0118
; #@! TA.AperFunction,Plated,PTH,ViaDrill
T3C0.0157
; #@! TA.AperFunction,Plated,PTH,ComponentDrill
T4C0.0236
%
G90
G05
T1
X4.5472Y-2.8543
X4.5472Y-2.8819
X4.5472Y-2.9094
X4.5472Y-2.9409
X4.5472Y-2.9685
X4.5472Y-2.9921
X4.5472Y-3.0236
X4.5472Y-3.0591
X4.5472Y-3.0906
X4.5472Y-3.122
X4.5472Y-3.1535
X4.5472Y-3.1969
X4.5472Y-3.2323
X4.5472Y-3.2638
X4.5472Y-3.2953
X4.5472Y-3.3268
X4.5472Y-3.3583
X4.5472Y-3.3937
X4.5472Y-3.4252
X4.5472Y-3.4606
X4.5472Y-3.5906
X4.5472Y-3.622
X4.5472Y-3.6535
X4.5472Y-3.685
X4.5472Y-3.7244
X4.5472Y-3.7598
X4.5472Y-3.7913
X4.5472Y-3.8228
X4.5472Y-3.8543
X4.5472Y-3.8937
X4.5472Y-3.9291
X4.5472Y-3.9606
X4.5472Y-3.9921
X4.5472Y-4.0236
X4.5472Y-4.0551
X4.5472Y-4.0906
X4.5472Y-4.122
X4.5472Y-4.1535
X4.5472Y-4.185
X4.5472Y-4.2205
X4.5472Y-4.2559
X4.5472Y-4.2874
X4.5472Y-4.3189
X4.5472Y-4.3504
X4.5472Y-4.3858
X4.5472Y-4.4213
X4.5472Y-4.4567
X4.5472Y-4.4882
X4.5512Y-3.5276
X4.5787Y-2.8543
X4.5945Y-4.5236
X4.6102Y-2.8543
X4.6299Y-4.5236
X4.6457Y-2.8543
X4.6575Y-3.6024
X4.6614Y-4.5236
X4.6772Y-2.8543
X4.689Y-3.7913
X4.6929Y-4.5236
X4.6969Y-3.4606
X4.7008Y-3.5276
X4.7087Y-2.8543
X4.7244Y-4.5236
X4.7441Y-2.8543
X4.7559Y-4.5236
X4.7598Y-3.7874
X4.7795Y-2.8543
X4.7795Y-4.0591
X4.7795Y-4.2165
X4.7813Y-3.5315
X4.7813Y-3.5591
X4.7913Y-4.5236
X4.7953Y-3.7087
X4.7992Y-3.6378
X4.7992Y-3.6811
X4.811Y-2.8543
X4.8189Y-3.3898
X4.8189Y-3.5276
X4.8189Y-3.5945
X4.8228Y-3.3189
X4.8228Y-4.5236
X4.8317Y-3.7495
X4.8465Y-2.8543
X4.8465Y-3.6732
X4.8504Y-2.9212
X4.8504Y-3.7126
X4.8543Y-4.5236
X4.8583Y-3.4882
X4.874Y-3.5748
X4.874Y-3.6378
X4.878Y-2.8543
X4.8858Y-4.1211
X4.8858Y-4.1614
X4.8858Y-4.1929
X4.8858Y-4.5236
X4.8898Y-4.0748
X4.8976Y-3.5295
X4.9055Y-4.0
X4.9055Y-4.0394
X4.9094Y-2.8543
X4.9094Y-4.1024
X4.9094Y-4.1466
X4.9173Y-4.0748
X4.9173Y-4.5236
X4.9213Y-4.1732
X4.9242Y-3.7913
X4.9242Y-3.8169
X4.9252Y-3.6378
X4.9252Y-3.6654
X4.9252Y-4.0197
X4.937Y-3.4882
X4.937Y-3.6142
X4.9409Y-2.8543
X4.9409Y-3.5315
X4.9409Y-4.0669
X4.9488Y-3.0354
X4.9488Y-4.1732
X4.9528Y-4.5236
X4.9764Y-2.8543
X4.9764Y-3.5276
X4.9764Y-4.2047
X4.9764Y-4.2283
X4.9764Y-4.252
X4.9803Y-3.8543
X4.9843Y-4.5236
X5.0Y-4.2047
X5.0Y-4.2283
X5.0Y-4.252
X5.0118Y-2.8543
X5.0157Y-4.5236
X5.0197Y-3.4882
X5.0236Y-3.3809
X5.0236Y-4.2047
X5.0236Y-4.2283
X5.0236Y-4.252
X5.0246Y-3.6378
X5.0246Y-3.6634
X5.0276Y-2.9409
X5.0276Y-3.7402
X5.0276Y-4.4213
X5.0433Y-2.8543
X5.0472Y-4.5236
X5.0512Y-4.4213
X5.0551Y-3.3583
X5.0591Y-3.5276
X5.0748Y-2.8543
X5.0768Y-3.3169
X5.0772Y-3.3449
X5.0787Y-2.9331
X5.0787Y-4.5236
X5.1043Y-3.311
X5.1063Y-2.8543
X5.1142Y-4.5236
X5.126Y-4.0551
X5.1279Y-3.4844
X5.1299Y-3.3096
X5.1378Y-2.8543
X5.1457Y-4.5236
X5.1535Y-3.4839
X5.1614Y-4.1142
X5.1732Y-2.8543
X5.1772Y-4.5236
X5.2047Y-2.8543
X5.2087Y-4.5236
X5.2283Y-3.435
X5.2283Y-3.4705
X5.2283Y-3.5157
X5.2362Y-2.8543
X5.2441Y-4.5236
X5.248Y-3.1614
X5.2638Y-4.2677
X5.2638Y-4.2913
X5.2638Y-4.315
X5.2677Y-2.8543
X5.2756Y-3.435
X5.2756Y-3.4705
X5.2756Y-4.1339
X5.2795Y-4.5236
X5.2827Y-3.6341
X5.2874Y-4.2677
X5.2874Y-4.2913
X5.2874Y-4.315
X5.2992Y-2.8543
X5.2992Y-3.7992
X5.311Y-3.1181
X5.311Y-3.3858
X5.311Y-4.0354
X5.311Y-4.2677
X5.311Y-4.2913
X5.311Y-4.315
X5.311Y-4.5236
X5.315Y-3.6339
X5.3189Y-3.9449
X5.3307Y-3.8346
X5.3307Y-3.878
X5.3346Y-2.8543
X5.3346Y-4.2677
X5.3346Y-4.2913
X5.3346Y-4.315
X5.3425Y-4.5236
X5.3583Y-3.8346
X5.3661Y-2.8543
X5.374Y-3.3543
X5.374Y-4.5236
X5.378Y-3.1102
X5.3858Y-2.9882
X5.3858Y-3.2008
X5.3858Y-3.2638
X5.3858Y-3.3228
X5.3976Y-2.8543
X5.4055Y-4.0551
X5.4055Y-4.0787
X5.4055Y-4.4528
X5.4055Y-4.4764
X5.4055Y-4.5236
X5.4252Y-2.9882
X5.4291Y-2.8543
X5.4291Y-4.4528
X5.4291Y-4.4764
X5.4331Y-4.0551
X5.4331Y-4.0787
X5.4409Y-4.5236
X5.4528Y-4.4528
X5.4528Y-4.4764
X5.4602Y-2.9767
X5.4606Y-2.8543
X5.4606Y-3.8937
X5.4606Y-4.0551
X5.4606Y-4.0787
X5.465Y-3.7248
X5.4724Y-4.5236
X5.4921Y-3.4685
X5.4961Y-2.8543
X5.5039Y-3.5118
X5.5039Y-4.5236
X5.5276Y-2.8543
X5.5315Y-3.6733
X5.5354Y-4.5236
X5.5591Y-2.8543
X5.5669Y-4.2402
X5.5669Y-4.2795
X5.5709Y-4.5236
X5.5808Y-3.4515
X5.5866Y-3.8622
X5.5906Y-2.8543
X5.5915Y-2.9892
X5.6063Y-4.2402
X5.6063Y-4.2795
X5.6063Y-4.5236
X5.6152Y-3.4833
X5.6181Y-3.6535
X5.622Y-2.8543
X5.626Y-2.9882
X5.6341Y-3.6735
X5.6378Y-4.5236
X5.6438Y-3.4554
X5.6575Y-2.8543
X5.6614Y-4.4528
X5.6693Y-4.0709
X5.6693Y-4.126
X5.6693Y-4.4016
X5.6693Y-4.5236
X5.6811Y-3.6299
X5.6823Y-2.9831
X5.689Y-2.8543
X5.6969Y-4.2362
X5.6969Y-4.2598
X5.6969Y-4.2835
X5.7008Y-4.5236
X5.7089Y-2.9833
X5.7126Y-3.4843
X5.7135Y-3.4506
X5.7185Y-4.376
X5.7205Y-2.8543
X5.7205Y-4.0512
X5.7205Y-4.0984
X5.7205Y-4.1457
X5.7205Y-4.2362
X5.7205Y-4.2598
X5.7205Y-4.2835
X5.7323Y-3.6614
X5.7323Y-4.5236
X5.7342Y-3.4655
X5.7402Y-3.748
X5.7441Y-4.2362
X5.7441Y-4.2598
X5.7441Y-4.2835
X5.7464Y-2.975
X5.7485Y-2.9495
X5.7495Y-3.0714
X5.752Y-2.8543
X5.752Y-3.2323
X5.7536Y-3.5016
X5.7677Y-4.5236
X5.7717Y-4.126
X5.7717Y-4.4016
X5.7756Y-3.2717
X5.7756Y-4.0709
X5.7795Y-3.5
X5.7795Y-4.4528
X5.7816Y-3.6674
X5.7835Y-2.8543
X5.7896Y-3.4625
X5.7992Y-4.5236
X5.8071Y-3.6319
X5.811Y-2.9764
X5.815Y-3.4528
X5.8189Y-2.8543
X5.8307Y-4.5236
X5.8337Y-3.4708
X5.8346Y-4.2402
X5.8346Y-4.2795
X5.8386Y-3.6695
X5.8484Y-2.998
X5.8504Y-2.8543
X5.8504Y-2.9281
X5.8504Y-2.9538
X5.8583Y-3.8819
X5.8622Y-3.3218
X5.8622Y-4.5236
X5.865Y-3.6357
X5.8734Y-3.1136
X5.874Y-2.9409
X5.874Y-3.1532
X5.874Y-3.1928
X5.8748Y-3.074
X5.878Y-4.2402
X5.878Y-4.2795
X5.8819Y-2.8543
X5.8819Y-3.0305
X5.8898Y-3.4961
X5.8976Y-4.5236
X5.8981Y-3.6699
X5.9036Y-3.5197
X5.9065Y-3.28
X5.909Y-3.0449
X5.9094Y-3.815
X5.9134Y-2.8543
X5.9134Y-3.0938
X5.9134Y-3.1334
X5.9134Y-3.173
X5.9232Y-3.2185
X5.9233Y-3.3603
X5.9272Y-3.6378
X5.9291Y-3.5197
X5.9298Y-3.2686
X5.9331Y-4.5236
X5.937Y-3.4016
X5.9409Y-3.435
X5.9449Y-2.8543
X5.9449Y-3.1732
X5.9482Y-3.2243
X5.9488Y-3.0354
X5.9646Y-2.9921
X5.9646Y-4.5236
X5.9649Y-3.2456
X5.9744Y-3.1919
X5.9764Y-4.4567
X5.9764Y-4.4803
X5.9783Y-3.1257
X5.9803Y-2.8543
X5.9843Y-3.8858
X5.9843Y-4.0433
X5.9843Y-4.0669
X5.9961Y-3.5512
X5.9961Y-3.8425
X5.9961Y-4.5236
X6.0Y-3.8189
X6.0039Y-3.7953
X6.0039Y-4.4567
X6.0039Y-4.4803
X6.0079Y-4.0433
X6.0079Y-4.0669
X6.0118Y-2.8543
X6.0119Y-3.2873
X6.0276Y-4.5236
X6.0315Y-4.0433
X6.0315Y-4.4567
X6.0315Y-4.4803
X6.0379Y-3.5663
X6.0394Y-3.4843
X6.0433Y-2.8543
X6.0433Y-3.2873
X6.0591Y-4.5236
X6.0617Y-3.5568
X6.063Y-3.4606
X6.063Y-4.2126
X6.0748Y-2.8543
X6.0749Y-3.2873
X6.0787Y-3.5827
X6.0866Y-3.437
X6.0945Y-4.5236
X6.1102Y-2.8543
X6.1102Y-3.4134
X6.1102Y-4.2677
X6.1102Y-4.2913
X6.1102Y-4.315
X6.1125Y-3.5568
X6.1142Y-3.2874
X6.1142Y-4.0276
X6.1142Y-4.058
X6.1142Y-4.0837
X6.1142Y-4.1142
X6.1181Y-3.5925
X6.126Y-4.5236
X6.1339Y-3.3898
X6.1339Y-4.2677
X6.1339Y-4.2913
X6.1339Y-4.315
X6.1416Y-3.315
X6.1416Y-3.3623
X6.1457Y-2.8543
X6.1567Y-3.6111
X6.1575Y-3.9764
X6.1575Y-4.2677
X6.1575Y-4.2913
X6.1575Y-4.315
X6.1575Y-4.5236
X6.1673Y-4.0039
X6.1772Y-2.8543
X6.1811Y-3.9764
X6.1811Y-4.2677
X6.1811Y-4.2913
X6.1811Y-4.315
X6.189Y-4.5236
X6.2087Y-2.8543
X6.2087Y-3.5698
X6.2116Y-3.7638
X6.2244Y-3.3543
X6.2244Y-3.7126
X6.2283Y-3.9961
X6.2283Y-4.5236
X6.2323Y-3.7835
X6.2323Y-3.811
X6.2323Y-3.8386
X6.2323Y-3.8661
X6.2362Y-3.5118
X6.2402Y-2.8543
X6.2402Y-2.8858
X6.2402Y-2.9213
X6.2402Y-2.9528
X6.2402Y-2.9843
X6.2402Y-3.0157
X6.2402Y-3.0433
X6.2402Y-3.0787
X6.2402Y-3.1102
X6.2402Y-3.1417
X6.2402Y-3.7559
X6.2441Y-3.8898
X6.2638Y-4.5236
X6.2713Y-3.6024
X6.2717Y-3.7441
X6.2756Y-3.8898
X6.2874Y-3.126
X6.2946Y-3.6528
X6.2953Y-3.4173
X6.2953Y-3.9528
X6.2953Y-4.0315
X6.2953Y-4.5236
X6.2992Y-3.5827
X6.2992Y-3.6082
X6.2992Y-3.7441
X6.2992Y-4.1102
X6.311Y-3.6732
X6.311Y-3.8898
X6.3228Y-3.126
X6.326Y-3.5431
X6.3268Y-4.5236
X6.3278Y-3.5158
X6.3307Y-3.7441
X6.3308Y-3.4777
X6.3386Y-3.8898
X6.3465Y-3.4213
X6.3504Y-3.9528
X6.3543Y-3.126
X6.3543Y-3.2953
X6.3563Y-3.7264
X6.3583Y-4.5236
X6.3701Y-3.8898
X6.376Y-3.7067
X6.3819Y-3.6772
X6.3858Y-3.126
X6.4016Y-3.8898
X6.4016Y-4.5236
X6.4134Y-3.9528
X6.4173Y-3.126
X6.4173Y-4.2067
X6.4173Y-4.2303
X6.4173Y-4.2539
X6.4331Y-3.8898
X6.437Y-4.5236
X6.4409Y-4.2067
X6.4409Y-4.2303
X6.4409Y-4.2539
X6.4449Y-3.7283
X6.4522Y-3.6687
X6.4567Y-3.126
X6.4646Y-3.8898
X6.4646Y-4.2067
X6.4646Y-4.2303
X6.4646Y-4.2539
X6.4685Y-3.748
X6.4685Y-4.5236
X6.4803Y-3.7913
X6.4882Y-3.6575
X6.4921Y-3.126
X6.4921Y-3.8898
X6.5Y-4.5236
X6.5157Y-3.8228
X6.5157Y-3.8543
X6.5157Y-3.878
X6.5197Y-3.3227
X6.5236Y-3.126
X6.5236Y-4.0
X6.5236Y-4.0394
X6.5315Y-4.5236
X6.5354Y-4.0197
X6.5354Y-4.1732
X6.5366Y-4.1404
X6.5472Y-4.0
X6.5472Y-4.0394
X6.5495Y-4.0972
X6.5512Y-4.0709
X6.5551Y-3.126
X6.5591Y-4.1211
X6.5591Y-4.1614
X6.5591Y-4.1969
X6.5669Y-4.5236
X6.5866Y-3.126
X6.5984Y-3.4488
X6.6024Y-4.5236
X6.6043Y-3.4744
X6.6063Y-3.6063
X6.6181Y-3.126
X6.6299Y-3.6063
X6.6339Y-3.5512
X6.6339Y-4.5236
X6.6535Y-3.126
X6.6575Y-3.6063
X6.6614Y-3.5512
X6.6614Y-4.2047
X6.6654Y-4.0512
X6.6654Y-4.5236
X6.6673Y-3.7618
X6.6791Y-3.7815
X6.685Y-3.126
X6.685Y-3.5512
X6.685Y-3.6063
X6.6909Y-3.7618
X6.6969Y-4.5236
X6.7028Y-3.7815
X6.7126Y-3.6024
X6.7146Y-3.7618
X6.7165Y-3.126
X6.7165Y-3.5433
X6.7244Y-3.6496
X6.7323Y-3.3346
X6.7323Y-3.378
X6.7323Y-3.4134
X6.7323Y-3.4449
X6.7323Y-3.4724
X6.7323Y-4.5236
X6.7362Y-3.5236
X6.7402Y-3.126
X6.7402Y-3.1575
X6.7402Y-3.1929
X6.7402Y-3.2205
X6.7402Y-3.248
X6.7402Y-3.2717
X6.7402Y-3.2992
X6.7402Y-3.5906
X6.7441Y-3.4961
X6.752Y-3.6496
X6.7677Y-3.5591
X6.7677Y-4.5236
X6.7874Y-3.5236
X6.7913Y-3.126
X6.7913Y-3.1575
X6.7913Y-3.1929
X6.7913Y-3.2205
X6.7913Y-3.248
X6.7913Y-3.2717
X6.7913Y-3.2992
X6.7913Y-3.4921
X6.7992Y-4.5236
X6.8024Y-3.3661
X6.8024Y-3.3937
X6.8024Y-3.4173
X6.8307Y-4.5236
X6.8622Y-4.5236
X6.8898Y-3.126
X6.8898Y-3.1575
X6.8898Y-3.189
X6.8898Y-3.2205
X6.8898Y-3.2559
X6.8898Y-3.2874
X6.8898Y-3.3189
X6.8898Y-3.3504
X6.8898Y-3.3819
X6.8898Y-3.4173
X6.8898Y-3.4488
X6.8898Y-3.4803
X6.8898Y-3.5118
X6.8898Y-3.5433
X6.8898Y-3.5787
X6.8898Y-3.6102
X6.8898Y-3.6378
X6.8898Y-3.6654
X6.8898Y-3.7598
X6.8898Y-3.8543
X6.8898Y-3.8898
X6.8898Y-3.9252
X6.8898Y-3.9567
X6.8898Y-3.9882
X6.8898Y-4.0197
X6.8898Y-4.0551
X6.8898Y-4.0906
X6.8898Y-4.122
X6.8898Y-4.1535
X6.8898Y-4.185
X6.8898Y-4.2205
X6.8898Y-4.252
X6.8898Y-4.2835
X6.8898Y-4.315
X6.8898Y-4.3465
X6.8898Y-4.3819
X6.8898Y-4.4134
X6.8898Y-4.4449
X6.8898Y-4.4764
X6.8898Y-4.5118
X6.8937Y-3.7913
X6.8937Y-3.8228
T2
X6.8504Y-3.0709
T3
X4.5551Y-4.5197
X4.6024Y-2.9016
X5.0315Y-3.2402
X5.1457Y-3.8976
X5.252Y-3.4508
X5.5472Y-3.1299
X5.5472Y-3.1772
X5.5472Y-3.2244
X5.5866Y-4.2598
X5.5945Y-3.1299
X5.5945Y-3.1772
X5.5945Y-3.2244
X5.6417Y-3.1299
X5.6417Y-3.1772
X5.6417Y-3.2244
X5.689Y-3.1299
X5.689Y-3.1772
X5.8543Y-4.2598
X6.2874Y-3.1614
X6.3071Y-3.1969
X6.3307Y-3.1614
X6.3504Y-3.1969
X6.3701Y-3.1614
X6.3898Y-3.1969
X6.4094Y-3.1614
X6.4291Y-3.1969
X6.4291Y-3.4882
X6.4291Y-3.5236
X6.4291Y-3.5591
X6.4528Y-3.1614
X6.4646Y-3.4882
X6.4646Y-3.5236
X6.4646Y-3.5591
X6.4685Y-3.1969
X6.4921Y-3.1614
X6.5Y-3.4882
X6.5Y-3.5236
X6.5Y-3.5591
X6.5079Y-3.1969
X6.5315Y-3.2283
X6.5354Y-3.1614
X6.5551Y-3.1969
X6.5787Y-3.1614
X6.5787Y-3.2283
X6.5866Y-3.3661
X6.5984Y-3.1969
X6.622Y-3.1614
X6.622Y-3.2283
X6.626Y-3.3661
X6.6457Y-3.1969
X6.6654Y-3.1614
X6.6654Y-3.2283
X6.689Y-3.1969
X6.7047Y-3.4567
X6.7047Y-3.5079
X6.7087Y-3.1614
X6.7087Y-3.2323
X6.8189Y-3.5118
X6.8228Y-3.2205
X6.8228Y-3.2638
X6.8504Y-3.1299
X6.8504Y-3.1693
X6.8504Y-3.3071
X6.8504Y-3.3504
X6.8504Y-3.3898
X6.8504Y-3.4331
X6.8504Y-3.4803
X6.8543Y-3.5354
X6.8583Y-3.2205
X6.8583Y-3.2638
T4
G00X4.6545Y-3.9638
M15
G01X4.6309Y-3.9638
M16
G05
G00X4.6545Y-4.3039
M15
G01X4.6309Y-4.3039
M16
G05
G00X4.8289Y-3.9638
M15
G01X4.7856Y-3.9638
M16
G05
G00X4.8289Y-4.3039
M15
G01X4.7856Y-4.3039
M16
G05
G00X6.612Y-3.9638
M15
G01X6.6553Y-3.9638
M16
G05
G00X6.612Y-4.3039
M15
G01X6.6553Y-4.3039
M16
G05
G00X6.7864Y-3.9638
M15
G01X6.81Y-3.9638
M16
G05
G00X6.7864Y-4.3039
M15
G01X6.81Y-4.3039
M16
G05
T0
M30
